<svg xmlns="http://www.w3.org/2000/svg" width="640" height="360" viewBox="0 0 640 360"><title>Art Leo - Portfólio artístico e experiências criativas 3D</title><defs><linearGradient id="b" x1="0%" x2="100%" y1="0%" y2="100%"><stop offset="0%" stop-color="#d946ef"/><stop offset="33%" stop-color="#7c3aed"/><stop offset="66%" stop-color="#0ea5e9"/><stop offset="100%" stop-color="#d946ef"/></linearGradient><pattern id="a" width="60" height="60" patternUnits="userSpaceOnUse"><path stroke="#7c3aed" stroke-width=".5" d="M30 0v60M0 30h60" opacity=".15"/></pattern></defs><rect width="640" height="360" fill="#05010d" rx="32"/><path fill="url(#a)" d="M0 0h640v360H0z"/><circle cx="150" cy="100" r="120" fill="#d946ef" opacity=".12"/><circle cx="490" cy="260" r="140" fill="#0ea5e9" opacity=".1"/><rect width="544" height="256" x="48" y="52" fill="rgba(15,23,42,0.5)" stroke="url(#b)" stroke-width="2" opacity=".8" rx="24"/><g stroke-width="2"><path fill="rgba(124,58,237,0.6)" stroke="#7c3aed" d="m170 100 50 30v60l-50-30Z"/><path fill="rgba(217,70,239,0.7)" stroke="#d946ef" d="m170 100 50 30-50 30-50-30Z"/><path fill="rgba(14,165,233,0.5)" stroke="#0ea5e9" d="m120 130 50 30v60l-50-30Z"/></g><g opacity=".8" transform="translate(280 100)"><path fill="none" stroke="url(#b)" stroke-width="2.5" d="m60 0 30 30-30 30-30-30Z"/><path fill="url(#b)" d="m60 0 30 30-30 30-30-30Z" opacity=".2"/><circle cx="150" cy="30" r="25" fill="none" stroke="#d946ef" stroke-width="2.5"/><circle cx="150" cy="30" r="25" fill="#d946ef" opacity=".15"/></g><g fill="none" stroke-linecap="round"><path stroke="url(#b)" stroke-width="3" d="M0 20q30-20 60 0t60 0" transform="translate(400 120)"/><path stroke="#0ea5e9" stroke-width="2.5" d="M400 170q30-20 60 0t60 0" opacity=".6"/></g><circle cx="480" cy="140" r="4" fill="#d946ef" opacity=".8"/><circle cx="510" cy="160" r="3" fill="#7c3aed" opacity=".6"/><circle cx="500" cy="185" r="5" fill="#0ea5e9" opacity=".7"/><text x="320" y="275" fill="url(#b)" font-family="'Space Grotesk', 'Inter', sans-serif" font-size="48" font-weight="700" text-anchor="middle">
    Art Leo
  </text><text x="320" y="310" fill="#94a3b8" font-family="'Inter', sans-serif" font-size="16" font-weight="500" text-anchor="middle">
    Creative Spaces
  </text></svg>