<svg xmlns="http://www.w3.org/2000/svg" width="640" height="360" viewBox="0 0 640 360"><title>Art Leo - 3D Experience Preview</title><defs><linearGradient id="c" x1="0%" x2="100%" y1="0%" y2="100%"><stop offset="0%" stop-color="#7c3aed"/><stop offset="33%" stop-color="#22d3ee"/><stop offset="66%" stop-color="#ec4899"/><stop offset="100%" stop-color="#7c3aed"/></linearGradient><linearGradient id="a" x1="0%" x2="100%" y1="0%" y2="100%"><stop offset="0%" stop-color="#7c3aed" stop-opacity=".8"/><stop offset="100%" stop-color="#22d3ee" stop-opacity=".4"/></linearGradient><linearGradient id="b" x1="100%" x2="0%" y1="0%" y2="100%"><stop offset="0%" stop-color="#ec4899" stop-opacity=".7"/><stop offset="100%" stop-color="#7c3aed" stop-opacity=".3"/></linearGradient></defs><rect width="640" height="360" fill="#0b1120" rx="32"/><circle cx="200" cy="150" r="140" fill="#7c3aed" opacity=".12"/><circle cx="440" cy="240" r="160" fill="#22d3ee" opacity=".1"/><rect width="544" height="256" x="48" y="52" fill="rgba(15,23,42,0.5)" rx="24"/><path fill="url(#a)" d="M0 20 60 0l60 20-60 20Z" opacity=".8" transform="translate(180 140)"/><path fill="url(#b)" d="m60 0 60 20v80L60 80Z" opacity=".9" transform="translate(180 140)"/><path fill="url(#c)" d="m0 20 60 20v80L0 100Z" opacity=".7" transform="translate(180 140)"/><path stroke="#22d3ee" stroke-width="2" d="m180 160 60-20" opacity=".6"/><path stroke="#7c3aed" stroke-width="2" d="m240 140 60 20" opacity=".6"/><path stroke="#ec4899" stroke-width="2" d="m300 160-60 20" opacity=".6"/><path stroke="#22d3ee" stroke-width="2" d="m240 180-60-20" opacity=".6"/><path fill="none" stroke="url(#c)" stroke-width="2.5" d="m40 0 40 20-40 20L0 20Z" transform="translate(380 130)"/><path fill="url(#c)" d="m40 0 40 20-40 20L0 20Z" opacity=".2" transform="translate(380 130)"/><path fill="none" stroke="#7c3aed" stroke-width="2" d="M420 130v-30l40 50m-40-50-40 50" opacity=".6"/><path fill="none" stroke="#ec4899" stroke-width="2" d="M420 170v30l40-50m-40 50-40-50" opacity=".6"/><g transform="translate(320 220)"><circle r="35" fill="none" stroke="url(#c)" stroke-width="2"/><circle r="35" fill="url(#c)" opacity=".1"/><ellipse cy="-15" fill="none" stroke="#22d3ee" stroke-width="1.5" opacity=".5" rx="30" ry="8"/><ellipse fill="none" stroke="#7c3aed" stroke-width="1.5" opacity=".5" rx="35" ry="10"/><ellipse cy="15" fill="none" stroke="#ec4899" stroke-width="1.5" opacity=".5" rx="30" ry="8"/></g><g opacity=".6"><circle cx="160" cy="120" r="4" fill="#7c3aed"/><circle cx="280" cy="100" r="3" fill="#22d3ee"/><circle cx="420" cy="110" r="5" fill="#ec4899"/><circle cx="500" cy="160" r="3" fill="#7c3aed"/><circle cx="380" cy="240" r="4" fill="#22d3ee"/><circle cx="240" cy="260" r="3" fill="#ec4899"/></g><g fill="none" stroke="url(#c)" opacity=".2"><path d="m180 160 140 60"/><path d="m380 150-60 70"/><path d="m240 180 140-30"/></g><text x="320" y="75" fill="url(#c)" font-family="'Space Grotesk', 'Inter', sans-serif" font-size="48" font-weight="700" text-anchor="middle">
    Art Leo 3D
  </text><text x="320" y="110" fill="#94a3b8" font-family="'Inter', sans-serif" font-size="17" font-weight="500" text-anchor="middle">
    Interactive 3D Experience
  </text></svg>