<svg xmlns="http://www.w3.org/2000/svg" width="640" height="360" viewBox="0 0 640 360"><title>Art Leo - Hero Visual</title><defs><radialGradient id="a" cx="50%" cy="50%" r="50%"><stop offset="0%" stop-color="#ec4899" stop-opacity=".3"/><stop offset="100%" stop-color="#7c3aed" stop-opacity="0"/></radialGradient><linearGradient id="b" x1="0%" x2="100%" y1="0%" y2="100%"><stop offset="0%" stop-color="#f97316"/><stop offset="33%" stop-color="#ec4899"/><stop offset="66%" stop-color="#7c3aed"/><stop offset="100%" stop-color="#6366f1"/></linearGradient></defs><rect width="640" height="360" fill="#05010d" rx="32"/><circle cx="160" cy="120" r="140" fill="url(#a)"/><circle cx="480" cy="240" r="160" fill="url(#a)"/><path fill="none" stroke="url(#b)" stroke-linecap="round" stroke-width="28" d="M80 240q80-120 160-60t160-20 160 60" opacity=".9"/><path fill="none" stroke="url(#b)" stroke-linecap="round" stroke-width="18" d="M100 200q80-100 160-40t160-20 160 60" opacity=".5"/><g opacity=".7"><circle cx="180" cy="140" r="55" fill="none" stroke="#f97316" stroke-width="3"/><circle cx="180" cy="140" r="45" fill="#f97316" opacity=".15"/><circle cx="380" cy="180" r="70" fill="none" stroke="#ec4899" stroke-width="3"/><circle cx="380" cy="180" r="60" fill="#ec4899" opacity=".15"/><circle cx="460" cy="230" r="85" fill="none" stroke="#6366f1" stroke-width="3"/><circle cx="460" cy="230" r="75" fill="#6366f1" opacity=".15"/></g><g opacity=".6"><circle cx="140" cy="100" r="4" fill="#f97316"/><circle cx="280" cy="120" r="5" fill="#ec4899"/><circle cx="420" cy="140" r="3" fill="#7c3aed"/><circle cx="520" cy="180" r="4" fill="#6366f1"/><circle cx="240" cy="220" r="3" fill="#ec4899"/><circle cx="360" cy="260" r="5" fill="#7c3aed"/></g><g filter="url(#c)"><text x="320" y="80" fill="url(#b)" font-family="'Space Grotesk', 'Inter', sans-serif" font-size="52" font-weight="700" text-anchor="middle">
      Art Leo
    </text></g><defs><filter id="c"><feGaussianBlur result="coloredBlur" stdDeviation="3"/><feMerge><feMergeNode in="coloredBlur"/><feMergeNode in="SourceGraphic"/></feMerge></filter></defs><text x="320" y="115" fill="#cbd5e1" font-family="'Inter', sans-serif" font-size="18" font-weight="500" opacity=".8" text-anchor="middle">
    Creative Spaces
  </text></svg>