<svg xmlns="http://www.w3.org/2000/svg" width="640" height="360" viewBox="0 0 640 360"><title>BotecoPro - Sistema de gestão para bares e restaurantes com IA</title><defs><linearGradient id="b" x1="0%" x2="100%" y1="0%" y2="100%"><stop offset="0%" stop-color="#7c3aed"/><stop offset="50%" stop-color="#f59e0b"/><stop offset="100%" stop-color="#ec4899"/></linearGradient><pattern id="a" width="40" height="40" patternUnits="userSpaceOnUse"><circle cx="20" cy="20" r="1.5" fill="#475569" opacity=".3"/></pattern></defs><rect width="640" height="360" fill="#020617" rx="32"/><path fill="url(#a)" d="M0 0h640v360H0z"/><circle cx="120" cy="100" r="140" fill="#f59e0b" opacity=".08"/><circle cx="520" cy="260" r="140" fill="#ec4899" opacity=".08"/><rect width="544" height="256" x="48" y="52" fill="rgba(15,23,42,0.6)" stroke="rgba(245,158,11,0.4)" stroke-width="2" rx="24"/><g transform="translate(100 100)"><rect width="120" height="90" fill="none" stroke="url(#b)" stroke-width="3" rx="8"/><rect width="104" height="74" x="8" y="8" fill="url(#b)" opacity=".15" rx="4"/><path stroke="#f59e0b" stroke-width="2" d="M20 25h80" opacity=".6"/><path stroke="#f59e0b" stroke-width="2" d="M20 40h60" opacity=".5"/><path stroke="#ec4899" stroke-width="2" d="M20 55h70" opacity=".5"/></g><g opacity=".9" transform="translate(260 100)"><rect width="90" height="60" fill="rgba(245,158,11,0.25)" stroke="#f59e0b" stroke-width="2" rx="12"/><circle cx="20" cy="20" r="6" fill="#f59e0b"/><rect width="90" height="60" x="100" fill="rgba(124,58,237,0.25)" stroke="#7c3aed" stroke-width="2" rx="12"/><circle cx="120" cy="20" r="6" fill="#7c3aed"/><rect width="90" height="60" x="50" y="70" fill="rgba(236,72,153,0.25)" stroke="#ec4899" stroke-width="2" rx="12"/><circle cx="70" cy="90" r="6" fill="#ec4899"/></g><g transform="translate(480 120)"><circle r="24" fill="none" stroke="url(#b)" stroke-width="2.5"/><circle r="16" fill="url(#b)" opacity=".3"/><text y="6" fill="#fff" font-family="'Space Grotesk', sans-serif" font-size="18" font-weight="700" text-anchor="middle">
      AI
    </text></g><text x="320" y="290" fill="url(#b)" font-family="'Space Grotesk', 'Inter', sans-serif" font-size="42" font-weight="700" text-anchor="middle">
    BotecoPro
  </text><text x="320" y="320" fill="#94a3b8" font-family="'Inter', sans-serif" font-size="16" font-weight="500" text-anchor="middle">
    Gestão Inteligente
  </text></svg>