<svg xmlns="http://www.w3.org/2000/svg" aria-labelledby="botecopt-title" viewBox="0 0 640 360"><title>Boteco.pt - Site Institucional para Gestão de Restaurantes</title><defs><linearGradient id="a" x1="0%" x2="100%" y1="0%" y2="100%"><stop offset="0%" style="stop-color:#8a1d3e;stop-opacity:1"/><stop offset="100%" style="stop-color:#b26f1a;stop-opacity:1"/></linearGradient></defs><path fill="#f1ddad" d="M0 0h640v360H0z"/><rect width="520" height="240" x="60" y="60" fill="url(#a)" rx="20"/><g transform="translate(140 140)"><path fill="#f1ddad" d="m-20-40-10 30h40L0-40Z" opacity=".9"/><rect width="35" height="60" x="-25" y="-10" fill="#f1ddad" opacity=".9" rx="5"/><circle cx="-7.5" cy="20" r="8" fill="#8a1d3e"/></g><g fill="#f1ddad" transform="translate(320 140)"><rect width="6" height="80" x="-3" y="-30" opacity=".9" rx="3"/><rect width="4" height="35" x="-12" y="-30" opacity=".9" rx="2"/><rect width="4" height="35" x="8" y="-30" opacity=".9" rx="2"/></g><g transform="translate(500 140)"><ellipse fill="#f1ddad" opacity=".9" rx="35" ry="30"/><ellipse fill="#b26f1a" rx="25" ry="20"/></g><circle cx="100" cy="100" r="4" fill="#df8f29" opacity=".6"/><circle cx="540" cy="260" r="4" fill="#d74672" opacity=".6"/><circle cx="120" cy="260" r="3" fill="#df8f29" opacity=".6"/><circle cx="520" cy="100" r="3" fill="#d74672" opacity=".6"/></svg>