<svg xmlns="http://www.w3.org/2000/svg" width="640" height="360" viewBox="0 0 640 360"><title>FACODI - Faculdade Comunitária Digital</title><defs><linearGradient id="b" x1="0%" x2="100%" y1="0%" y2="100%"><stop offset="0%" stop-color="#7c3aed"/><stop offset="50%" stop-color="#0ea5e9"/><stop offset="100%" stop-color="#22d3ee"/></linearGradient><pattern id="a" width="30" height="30" patternUnits="userSpaceOnUse"><circle cx="15" cy="15" r="1" fill="#0ea5e9" opacity=".2"/></pattern></defs><rect width="640" height="360" fill="#020617" rx="32"/><path fill="url(#a)" d="M0 0h640v360H0z"/><circle cx="100" cy="280" r="120" fill="#7c3aed" opacity=".08"/><circle cx="540" cy="80" r="100" fill="#0ea5e9" opacity=".08"/><rect width="544" height="256" x="48" y="52" fill="rgba(15,23,42,0.6)" stroke="rgba(14,165,233,0.4)" stroke-width="2" rx="24"/><path fill="none" stroke="url(#b)" stroke-linejoin="round" stroke-width="3" d="M20 10q40-5 60 0v60q-20-5-60 0Z" transform="translate(90 110)"/><path fill="none" stroke="url(#b)" stroke-linejoin="round" stroke-width="3" d="M80 10q20-5 60 0v60q-40-5-60 0Z" transform="translate(90 110)"/><path stroke="#7c3aed" stroke-width="1.5" d="m110 140 55-2" opacity=".4"/><path stroke="#0ea5e9" stroke-width="1.5" d="m110 155 55-2M175 138l55 2" opacity=".4"/><path stroke="#22d3ee" stroke-width="1.5" d="m175 153 55 2" opacity=".4"/><g transform="translate(280 110)"><circle cy="30" r="16" fill="rgba(124,58,237,0.3)" stroke="#7c3aed" stroke-width="2"/><text y="36" fill="#7c3aed" font-family="'Space Grotesk', sans-serif" font-size="16" font-weight="700" text-anchor="middle">
      1
    </text><path stroke="url(#b)" stroke-dasharray="4 4" stroke-width="2" d="M16 30h48"/><circle cx="80" cy="30" r="16" fill="rgba(14,165,233,0.3)" stroke="#0ea5e9" stroke-width="2"/><text x="80" y="36" fill="#0ea5e9" font-family="'Space Grotesk', sans-serif" font-size="16" font-weight="700" text-anchor="middle">
      2
    </text><path stroke="url(#b)" stroke-dasharray="4 4" stroke-width="2" d="M96 30h48"/><circle cx="160" cy="30" r="16" fill="rgba(34,211,238,0.3)" stroke="#22d3ee" stroke-width="2"/><text x="160" y="36" fill="#22d3ee" font-family="'Space Grotesk', sans-serif" font-size="16" font-weight="700" text-anchor="middle">
      3
    </text></g><g stroke-width="2" transform="translate(480 120)"><circle cx="-15" r="12" fill="rgba(124,58,237,0.4)" stroke="#7c3aed"/><circle cy="-15" r="12" fill="rgba(14,165,233,0.4)" stroke="#0ea5e9"/><circle cx="15" r="12" fill="rgba(34,211,238,0.4)" stroke="#22d3ee"/></g><text x="320" y="280" fill="url(#b)" font-family="'Space Grotesk', 'Inter', sans-serif" font-size="48" font-weight="700" text-anchor="middle">
    FACODI
  </text><text x="320" y="315" fill="#94a3b8" font-family="'Inter', sans-serif" font-size="16" font-weight="500" text-anchor="middle">
    Educação Comunitária Digital
  </text></svg>