<svg xmlns="http://www.w3.org/2000/svg" width="640" height="360" viewBox="0 0 640 360"><title>Infra Hub - Hub central da infraestrutura Monynha Online</title><defs><linearGradient id="b" x1="0%" x2="100%" y1="0%" y2="100%"><stop offset="0%" stop-color="#0ea5e9"/><stop offset="50%" stop-color="#7c3aed"/><stop offset="100%" stop-color="#0ea5e9"/></linearGradient><pattern id="a" width="30" height="30" patternUnits="userSpaceOnUse"><path fill="none" stroke="#1e293b" stroke-width=".5" d="M30 0H0v30"/></pattern></defs><rect width="640" height="360" fill="#020617" rx="32"/><path fill="url(#a)" d="M0 0h640v360H0z"/><circle cx="160" cy="120" r="120" fill="#0ea5e9" opacity=".08"/><circle cx="480" cy="240" r="140" fill="#7c3aed" opacity=".08"/><rect width="536" height="256" x="52" y="52" fill="rgba(15,23,42,0.7)" stroke="rgba(14,165,233,0.4)" stroke-width="2" rx="24"/><g fill="none" stroke="url(#b)" stroke-dasharray="4 4" stroke-width="2.5" opacity=".6"><path d="m160 140 80-20 80 20"/><path d="m320 140 80-20 80 20"/><path d="m240 120 80 60 80-60"/><path d="m160 140 80 60 80-20"/><path d="m320 180 80 20 80-60"/></g><g transform="translate(320 140)"><circle r="32" fill="rgba(14,165,233,0.3)" stroke="#0ea5e9" stroke-width="3"/><rect width="24" height="16" x="-12" y="-8" fill="#0ea5e9" opacity=".8" rx="2"/><path stroke="#020617" stroke-width="1.5" d="M-8-2H8M-8 2H8"/></g><g transform="translate(160 140)"><circle r="22" fill="rgba(124,58,237,0.3)" stroke="#7c3aed" stroke-width="2.5"/><rect width="16" height="12" x="-8" y="-6" fill="#7c3aed" rx="2"/></g><g transform="translate(480 140)"><circle r="22" fill="rgba(124,58,237,0.3)" stroke="#7c3aed" stroke-width="2.5"/><rect width="16" height="12" x="-8" y="-6" fill="#7c3aed" rx="2"/></g><g transform="translate(240 120)"><circle r="18" fill="rgba(14,165,233,0.3)" stroke="#0ea5e9" stroke-width="2"/><rect width="12" height="10" x="-6" y="-5" fill="#0ea5e9" rx="1.5"/></g><g transform="translate(400 120)"><circle r="18" fill="rgba(14,165,233,0.3)" stroke="#0ea5e9" stroke-width="2"/><rect width="12" height="10" x="-6" y="-5" fill="#0ea5e9" rx="1.5"/></g><g transform="translate(240 200)"><circle r="16" fill="rgba(100,116,139,0.3)" stroke="#64748b" stroke-width="2"/><rect width="10" height="8" x="-5" y="-4" fill="#64748b" rx="1.5"/></g><g transform="translate(400 200)"><circle r="16" fill="rgba(100,116,139,0.3)" stroke="#64748b" stroke-width="2"/><rect width="10" height="8" x="-5" y="-4" fill="#64748b" rx="1.5"/></g><g transform="translate(320 180)"><circle r="18" fill="rgba(14,165,233,0.3)" stroke="#0ea5e9" stroke-width="2"/><rect width="12" height="10" x="-6" y="-5" fill="#0ea5e9" rx="1.5"/></g><g opacity=".4"><circle cx="200" cy="130" r="3" fill="#0ea5e9"/><circle cx="280" cy="160" r="3" fill="#7c3aed"/><circle cx="360" cy="130" r="3" fill="#0ea5e9"/><circle cx="440" cy="140" r="3" fill="#7c3aed"/></g><text x="320" y="275" fill="url(#b)" font-family="'Space Grotesk', 'Inter', sans-serif" font-size="42" font-weight="700" text-anchor="middle">
    Infra Hub
  </text><text x="320" y="310" fill="#94a3b8" font-family="'Inter', sans-serif" font-size="16" font-weight="500" text-anchor="middle">
    Monynha Online
  </text></svg>