<svg xmlns="http://www.w3.org/2000/svg" width="640" height="360" viewBox="0 0 640 360" role="img">
  <title>Representação visual do Infra Hub com nós conectados</title>
  <defs>
    <linearGradient id="infraGradient" x1="0%" y1="0%" x2="100%" y2="100%">
      <stop offset="0%" stop-color="#0EA5E9" />
      <stop offset="100%" stop-color="#7C3AED" />
    </linearGradient>
  </defs>
  <rect width="640" height="360" rx="32" fill="#020617" />
  <rect x="52" y="52" width="536" height="256" rx="26" fill="rgba(12,17,33,0.92)" stroke="rgba(56,189,248,0.35)" stroke-width="2" />
  <g stroke="url(#infraGradient)" stroke-width="4" stroke-linecap="round" opacity="0.8">
    <path d="M140 140 L 240 110 L 320 140 L 420 120 L 500 180" fill="none" />
    <path d="M140 200 L 240 240 L 320 210 L 420 250 L 500 220" fill="none" opacity="0.6" />
    <path d="M200 160 L 260 200 L 360 170 L 440 210" fill="none" opacity="0.5" />
  </g>
  <g>
    <circle cx="140" cy="140" r="18" fill="#7C3AED" />
    <circle cx="240" cy="110" r="16" fill="#0EA5E9" />
    <circle cx="320" cy="140" r="20" fill="#EC4899" opacity="0.85" />
    <circle cx="420" cy="120" r="16" fill="#0EA5E9" />
    <circle cx="500" cy="180" r="22" fill="#7C3AED" />
    <circle cx="240" cy="240" r="18" fill="#0EA5E9" opacity="0.75" />
    <circle cx="420" cy="250" r="18" fill="#7C3AED" opacity="0.75" />
  </g>
  <text x="50%" y="85%" text-anchor="middle" fill="#bae6fd" font-family="'Space Grotesk', 'Inter', sans-serif" font-size="38" font-weight="600">
    Infra Hub
  </text>
</svg>
