<svg xmlns="http://www.w3.org/2000/svg" width="640" height="360" viewBox="0 0 640 360"><title>KobuAssistent - Assistente virtual por IA para atendimento</title><defs><radialGradient id="a" cx="50%" cy="50%" r="50%"><stop offset="0%" stop-color="#d946ef" stop-opacity=".4"/><stop offset="100%" stop-color="#7c3aed" stop-opacity="0"/></radialGradient><linearGradient id="b" x1="0%" x2="100%" y1="0%" y2="100%"><stop offset="0%" stop-color="#7c3aed"/><stop offset="50%" stop-color="#0ea5e9"/><stop offset="100%" stop-color="#d946ef"/></linearGradient></defs><rect width="640" height="360" fill="#020617" rx="32"/><circle cx="150" cy="120" r="140" fill="url(#a)"/><circle cx="490" cy="240" r="160" fill="url(#a)"/><rect width="544" height="256" x="48" y="52" fill="rgba(15,23,42,0.6)" stroke="rgba(124,58,237,0.5)" stroke-width="2" rx="24"/><g transform="translate(100 90)"><rect width="220" height="140" fill="rgba(15,23,42,0.8)" stroke="url(#b)" stroke-width="2" rx="16"/><circle cx="30" cy="30" r="18" fill="url(#b)" opacity=".3"/><circle cx="30" cy="30" r="12" fill="url(#b)"/><g stroke-width="1.5" opacity=".8"><rect width="145" height="20" x="55" y="20" fill="rgba(124,58,237,0.4)" stroke="#7c3aed" rx="10"/><rect width="180" height="16" x="20" y="55" fill="rgba(14,165,233,0.3)" stroke="#0ea5e9" rx="8"/><rect width="150" height="16" x="20" y="80" fill="rgba(14,165,233,0.3)" stroke="#0ea5e9" rx="8"/><rect width="130" height="18" x="75" y="110" fill="rgba(217,70,239,0.3)" stroke="#d946ef" rx="9"/></g></g><g fill="none" stroke="url(#b)" stroke-dasharray="4 4" stroke-width="2" opacity=".4"><path d="M340 100q40 30 80 0"/><path d="M340 160q40-30 80 0"/><path d="M340 180q40 20 80 0"/></g><g transform="translate(440 100)"><circle r="14" fill="rgba(124,58,237,0.4)" stroke="#7c3aed" stroke-width="2"/><circle r="6" fill="#7c3aed"/><circle cy="60" r="16" fill="rgba(14,165,233,0.4)" stroke="#0ea5e9" stroke-width="2"/><circle cy="60" r="7" fill="#0ea5e9"/><circle cy="80" r="12" fill="rgba(217,70,239,0.4)" stroke="#d946ef" stroke-width="2"/><circle cy="80" r="5" fill="#d946ef"/></g><g fill="none" stroke="url(#b)" opacity=".3" transform="translate(500 150)"><circle r="35" stroke-width="1.5"/><circle r="50"/></g><g transform="translate(500 150)"><circle r="24" fill="url(#b)" opacity=".3"/><circle r="18" fill="url(#b)"/><text y="7" fill="#fff" font-family="'Space Grotesk', sans-serif" font-size="20" font-weight="700" text-anchor="middle">
      AI
    </text></g><text x="320" y="275" fill="url(#b)" font-family="'Space Grotesk', 'Inter', sans-serif" font-size="44" font-weight="700" text-anchor="middle">
    KobuAssistent
  </text><text x="320" y="310" fill="#94a3b8" font-family="'Inter', sans-serif" font-size="16" font-weight="500" text-anchor="middle">
    Assistente Virtual IA
  </text></svg>