<svg xmlns="http://www.w3.org/2000/svg" width="640" height="360" viewBox="0 0 640 360"><title>Marcelo Portfolio - Portfólio pessoal e site profissional</title><defs><linearGradient id="a" x1="0%" x2="100%" y1="0%" y2="100%"><stop offset="0%" stop-color="#7c3aed"/><stop offset="50%" stop-color="#0ea5e9"/><stop offset="100%" stop-color="#d946ef"/></linearGradient></defs><rect width="640" height="360" fill="#020617" rx="32"/><circle cx="120" cy="100" r="110" fill="#7c3aed" opacity=".08"/><circle cx="520" cy="260" r="120" fill="#d946ef" opacity=".08"/><rect width="544" height="256" x="48" y="52" fill="rgba(15,23,42,0.8)" stroke="url(#a)" stroke-width="2" rx="24"/><g opacity=".95"><rect width="160" height="200" x="90" y="90" fill="url(#a)" opacity=".8" rx="18"/><circle cx="170" cy="150" r="35" fill="rgba(255,255,255,0.9)" stroke="#fff" stroke-width="3"/><rect width="110" height="10" x="115" y="200" fill="#fff" opacity=".9" rx="5"/><rect width="80" height="6" x="130" y="220" fill="#e0f2fe" opacity=".8" rx="3"/><g fill="#fff" transform="translate(135 245)"><circle r="8" opacity=".7"/><circle cx="25" r="8" opacity=".7"/><circle cx="50" r="8" opacity=".7"/><circle cx="75" r="8" opacity=".7"/></g><g transform="translate(275 90)"><rect width="285" height="75" fill="rgba(14,165,233,0.25)" stroke="#0ea5e9" stroke-width="2" rx="16"/><rect width="120" height="8" x="16" y="16" fill="#0ea5e9" opacity=".8" rx="4"/><rect width="180" height="6" x="16" y="32" fill="#cbd5e1" opacity=".6" rx="3"/><rect width="150" height="6" x="16" y="44" fill="#cbd5e1" opacity=".5" rx="3"/><circle cx="230" cy="28" r="6" fill="#0ea5e9" opacity=".6"/><circle cx="250" cy="28" r="6" fill="#7c3aed" opacity=".6"/><circle cx="270" cy="28" r="6" fill="#d946ef" opacity=".6"/><rect width="285" height="50" y="90" fill="rgba(124,58,237,0.25)" stroke="#7c3aed" stroke-width="2" rx="14"/><rect width="90" height="7" x="16" y="106" fill="#7c3aed" opacity=".8" rx="3.5"/><rect width="140" height="5" x="16" y="120" fill="#cbd5e1" opacity=".5" rx="2.5"/><rect width="285" height="40" y="155" fill="rgba(217,70,239,0.2)" stroke="#d946ef" stroke-width="1.5" rx="12"/><rect width="80" height="6" x="16" y="167" fill="#d946ef" opacity=".7" rx="3"/><rect width="100" height="5" x="16" y="180" fill="#cbd5e1" opacity=".5" rx="2.5"/><circle cx="240" cy="215" r="4" fill="#0ea5e9" opacity=".5"/><circle cx="260" cy="215" r="4" fill="#7c3aed" opacity=".5"/><circle cx="280" cy="215" r="4" fill="#d946ef" opacity=".5"/></g></g><text x="320" y="285" fill="url(#a)" font-family="'Space Grotesk', 'Inter', sans-serif" font-size="38" font-weight="700" text-anchor="middle">
    Marcelo Portfolio
  </text><text x="320" y="318" fill="#94a3b8" font-family="'Inter', sans-serif" font-size="16" font-weight="500" text-anchor="middle">
    marcelo.monynha.com
  </text></svg>