<svg xmlns="http://www.w3.org/2000/svg" width="640" height="360" viewBox="0 0 640 360"><title>MonaDocs - Template de documentação técnica Monynha</title><defs><linearGradient id="a" x1="0%" x2="100%" y1="0%" y2="100%"><stop offset="0%" stop-color="#0ea5e9"/><stop offset="50%" stop-color="#7c3aed"/><stop offset="100%" stop-color="#0ea5e9"/></linearGradient></defs><rect width="640" height="360" fill="#020617" rx="32"/><circle cx="120" cy="280" r="100" fill="#0ea5e9" opacity=".06"/><circle cx="520" cy="80" r="100" fill="#7c3aed" opacity=".06"/><rect width="544" height="256" x="48" y="52" fill="rgba(15,23,42,0.7)" stroke="rgba(148,163,184,0.3)" stroke-width="2" rx="24"/><g transform="translate(100 90)"><rect width="220" height="160" fill="rgba(30,41,59,0.8)" stroke="url(#a)" stroke-width="2" rx="16"/><g opacity=".7"><rect width="140" height="8" x="24" y="24" fill="#0ea5e9" rx="4"/><rect width="180" height="6" x="24" y="44" fill="#94a3b8" opacity=".6" rx="3"/><rect width="160" height="6" x="24" y="58" fill="#94a3b8" opacity=".5" rx="3"/><rect width="170" height="6" x="24" y="72" fill="#94a3b8" opacity=".5" rx="3"/><rect width="180" height="52" x="24" y="92" fill="rgba(124,58,237,0.15)" stroke="#7c3aed" stroke-width="1.5" rx="8"/><path stroke="#7c3aed" stroke-width="2" d="M34 105h126" opacity=".6"/><path stroke="#0ea5e9" stroke-width="2" d="M34 118h106" opacity=".5"/><path stroke="#7c3aed" stroke-width="2" d="M34 131h116" opacity=".5"/></g></g><g opacity=".8" transform="translate(340 110)"><rect width="180" height="100" fill="rgba(30,41,59,0.6)" stroke="rgba(14,165,233,0.4)" stroke-width="2" rx="14"/><rect width="100" height="6" x="16" y="16" fill="#0ea5e9" opacity=".7" rx="3"/><rect width="140" height="4" x="16" y="32" fill="#64748b" opacity=".5" rx="2"/><rect width="120" height="4" x="16" y="42" fill="#64748b" opacity=".4" rx="2"/><rect width="180" height="60" x="20" y="60" fill="rgba(30,41,59,0.7)" stroke="rgba(124,58,237,0.4)" stroke-width="2" rx="12"/><rect width="90" height="5" x="36" y="76" fill="#7c3aed" opacity=".7" rx="2.5"/><rect width="130" height="4" x="36" y="88" fill="#64748b" opacity=".4" rx="2"/></g><g transform="translate(160 110)"><circle r="4" fill="#0ea5e9"/><circle cx="16" r="4" fill="#7c3aed" opacity=".7"/><circle cx="32" r="4" fill="#64748b" opacity=".5"/></g><g stroke="url(#a)" stroke-width="2.5" transform="translate(480 130)"><circle r="20" fill="none"/><path stroke-linecap="round" d="m14 14 10 10"/></g><text x="320" y="280" fill="url(#a)" font-family="'Space Grotesk', 'Inter', sans-serif" font-size="42" font-weight="700" text-anchor="middle">
    MonaDocs
  </text><text x="320" y="315" fill="#94a3b8" font-family="'Inter', sans-serif" font-size="16" font-weight="500" text-anchor="middle">
    Template de Documentação
  </text></svg>