<svg xmlns="http://www.w3.org/2000/svg" width="640" height="360" viewBox="0 0 640 360"><title>MonynhaTech - Blog técnico e documentação multilíngue</title><defs><linearGradient id="b" x1="0%" x2="100%" y1="0%" y2="100%"><stop offset="0%" stop-color="#0ea5e9"/><stop offset="50%" stop-color="#7c3aed"/><stop offset="100%" stop-color="#d946ef"/></linearGradient><pattern id="a" width="40" height="40" patternUnits="userSpaceOnUse"><text x="5" y="20" fill="#475569" font-family="monospace" font-size="12" opacity=".3">&lt;/&gt;</text></pattern></defs><rect width="640" height="360" fill="#020617" rx="32"/><path fill="url(#a)" d="M0 0h640v360H0z"/><circle cx="140" cy="100" r="110" fill="#0ea5e9" opacity=".08"/><circle cx="500" cy="260" r="120" fill="#7c3aed" opacity=".08"/><rect width="544" height="256" x="48" y="52" fill="rgba(15,23,42,0.7)" stroke="url(#b)" stroke-width="2" opacity=".9" rx="24"/><g transform="translate(90 100)"><rect width="200" height="130" fill="rgba(30,41,59,0.8)" stroke="#0ea5e9" stroke-width="2.5" rx="14"/><rect width="60" height="6" x="16" y="16" fill="#0ea5e9" opacity=".7" rx="3"/><rect width="40" height="6" x="88" y="16" fill="#7c3aed" opacity=".5" rx="3"/><rect width="160" height="8" x="16" y="36" fill="#e0f2fe" opacity=".8" rx="4"/><rect width="140" height="6" x="16" y="52" fill="#94a3b8" opacity=".6" rx="3"/><rect width="150" height="6" x="16" y="64" fill="#94a3b8" opacity=".5" rx="3"/><g transform="translate(16 90)"><rect width="45" height="20" fill="rgba(14,165,233,0.2)" stroke="#0ea5e9" rx="10"/><rect width="50" height="20" x="52" fill="rgba(124,58,237,0.2)" stroke="#7c3aed" rx="10"/></g></g><g opacity=".85" transform="translate(320 100)"><rect width="240" height="35" fill="rgba(30,41,59,0.6)" stroke="rgba(14,165,233,0.3)" stroke-width="1.5" rx="8"/><circle cx="18" cy="17.5" r="6" fill="#0ea5e9" opacity=".6"/><rect width="100" height="5" x="34" y="10" fill="#cbd5e1" opacity=".7" rx="2.5"/><rect width="80" height="4" x="34" y="20" fill="#64748b" opacity=".5" rx="2"/><rect width="240" height="35" y="45" fill="rgba(30,41,59,0.6)" stroke="rgba(124,58,237,0.3)" stroke-width="1.5" rx="8"/><circle cx="18" cy="62.5" r="6" fill="#7c3aed" opacity=".6"/><rect width="110" height="5" x="34" y="55" fill="#cbd5e1" opacity=".7" rx="2.5"/><rect width="90" height="4" x="34" y="65" fill="#64748b" opacity=".5" rx="2"/><rect width="240" height="35" y="90" fill="rgba(30,41,59,0.6)" stroke="rgba(217,70,239,0.3)" stroke-width="1.5" rx="8"/><circle cx="18" cy="107.5" r="6" fill="#d946ef" opacity=".6"/><rect width="95" height="5" x="34" y="100" fill="#cbd5e1" opacity=".7" rx="2.5"/><rect width="70" height="4" x="34" y="110" fill="#64748b" opacity=".5" rx="2"/></g><text fill="url(#b)" font-family="'JetBrains Mono', monospace" font-size="36" font-weight="700" opacity=".2" transform="translate(100 120)">
      &lt;/&gt;
    </text><text x="320" y="280" fill="url(#b)" font-family="'Space Grotesk', 'Inter', sans-serif" font-size="42" font-weight="700" text-anchor="middle">
    MonynhaTech
  </text><text x="320" y="315" fill="#94a3b8" font-family="'Inter', sans-serif" font-size="16" font-weight="500" text-anchor="middle">
    Blog Técnico
  </text></svg>