<svg xmlns="http://www.w3.org/2000/svg" width="640" height="360" viewBox="0 0 640 360"><title>Monynha.com - Site institucional da Monynha Softwares</title><defs><linearGradient id="a" x1="0%" x2="100%" y1="0%" y2="100%"><stop offset="0%" stop-color="#7c3aed"/><stop offset="33%" stop-color="#0ea5e9"/><stop offset="66%" stop-color="#d946ef"/><stop offset="100%" stop-color="#7c3aed"/></linearGradient></defs><rect width="640" height="360" fill="#0f172a" rx="32"/><circle cx="130" cy="110" r="130" fill="#7c3aed" opacity=".12"/><circle cx="510" cy="250" r="150" fill="#d946ef" opacity=".1"/><rect width="544" height="256" x="48" y="52" fill="rgba(15,23,42,0.6)" stroke="url(#a)" stroke-width="2.5" opacity=".9" rx="24"/><g transform="translate(320 160)"><circle r="70" fill="url(#a)" opacity=".15"/><path fill="url(#a)" d="M-40-30v60h20L0-10l20 40h20v-60H25v40L0-25l-25 35v-40Z" opacity=".9"/><circle r="55" fill="none" stroke="url(#a)" stroke-width="2" opacity=".5"/></g><g fill="none" stroke-linecap="round" stroke-linejoin="round" stroke-width="2" opacity=".3"><path stroke="#7c3aed" d="m90 80 30 20-30 20"/><path stroke="#0ea5e9" d="m550 80-30 20 30 20"/><path stroke="#d946ef" d="m90 240 30 20-30 20"/><path stroke="#0ea5e9" d="m550 240-30 20 30 20"/></g><circle cx="220" cy="100" r="6" fill="#7c3aed" opacity=".7"/><circle cx="420" cy="100" r="5" fill="#0ea5e9" opacity=".6"/><circle cx="180" cy="180" r="4" fill="#d946ef" opacity=".7"/><circle cx="460" cy="180" r="6" fill="#7c3aed" opacity=".6"/><circle cx="220" cy="260" r="5" fill="#0ea5e9" opacity=".7"/><circle cx="420" cy="260" r="4" fill="#d946ef" opacity=".6"/><g fill="none" stroke="url(#a)" stroke-width="1.5" opacity=".2"><path d="M220 100q50 20 100 10"/><path d="M320 110q50 10 100-10"/><path d="m180 180 140-20"/><path d="m320 160 140 20"/></g><text x="320" y="280" fill="url(#a)" font-family="'Space Grotesk', 'Inter', sans-serif" font-size="44" font-weight="700" text-anchor="middle">
    Monynha.com
  </text><text x="320" y="315" fill="#94a3b8" font-family="'Inter', sans-serif" font-size="16" font-weight="500" text-anchor="middle">
    Site Institucional
  </text></svg>