<svg xmlns="http://www.w3.org/2000/svg" width="640" height="360" viewBox="0 0 640 360"><title>Open WebUI - Instância Open WebUI para IA local e web</title><defs><linearGradient id="a" x1="0%" x2="100%" y1="0%" y2="100%"><stop offset="0%" stop-color="#7c3aed"/><stop offset="50%" stop-color="#0ea5e9"/><stop offset="100%" stop-color="#7c3aed"/></linearGradient></defs><rect width="640" height="360" fill="#020617" rx="32"/><circle cx="120" cy="100" r="100" fill="#7c3aed" opacity=".08"/><circle cx="520" cy="260" r="120" fill="#0ea5e9" opacity=".08"/><rect width="528" height="248" x="56" y="56" fill="rgba(15,23,42,0.9)" stroke="url(#a)" stroke-width="2.5" rx="20"/><rect width="528" height="32" x="56" y="56" fill="rgba(30,41,59,0.9)" rx="20"/><g transform="translate(75 72)"><circle r="5" fill="#ef4444" opacity=".8"/><circle cx="18" r="5" fill="#f59e0b" opacity=".8"/><circle cx="36" r="5" fill="#10b981" opacity=".8"/></g><g transform="translate(90 110)"><rect width="120" height="170" fill="rgba(30,41,59,0.8)" stroke="rgba(124,58,237,0.4)" stroke-width="1.5" rx="12"/><g opacity=".8"><rect width="96" height="28" x="12" y="12" fill="rgba(124,58,237,0.4)" stroke="#7c3aed" stroke-width="1.5" rx="8"/><rect width="96" height="24" x="12" y="48" fill="rgba(100,116,139,0.2)" rx="6"/><rect width="96" height="24" x="12" y="80" fill="rgba(100,116,139,0.2)" rx="6"/><rect width="96" height="24" x="12" y="112" fill="rgba(100,116,139,0.2)" rx="6"/><rect width="96" height="20" x="12" y="144" fill="rgba(100,116,139,0.2)" rx="6"/></g><rect width="325" height="170" x="135" fill="rgba(15,23,42,0.7)" rx="12"/><g opacity=".85" transform="translate(150 15)"><rect width="260" height="32" x="40" fill="rgba(14,165,233,0.3)" stroke="#0ea5e9" stroke-width="1.5" rx="10"/><rect width="285" height="40" y="45" fill="rgba(124,58,237,0.25)" stroke="#7c3aed" stroke-width="1.5" rx="10"/><rect width="240" height="28" x="60" y="100" fill="rgba(14,165,233,0.3)" stroke="#0ea5e9" stroke-width="1.5" rx="10"/><g fill="#7c3aed" transform="translate(12 145)"><circle r="3" opacity=".8"/><circle cx="12" r="3" opacity=".6"/><circle cx="24" r="3" opacity=".4"/></g></g></g><g transform="translate(520 110)"><circle r="22" fill="url(#a)" opacity=".3"/><circle r="18" fill="url(#a)"/><text y="6" fill="#fff" font-family="'Space Grotesk', sans-serif" font-size="16" font-weight="700" text-anchor="middle">
      AI
    </text></g><text x="320" y="280" fill="url(#a)" font-family="'Space Grotesk', 'Inter', sans-serif" font-size="40" font-weight="700" text-anchor="middle">
    Open WebUI
  </text><text x="320" y="315" fill="#94a3b8" font-family="'Inter', sans-serif" font-size="16" font-weight="500" text-anchor="middle">
    Interface IA Local
  </text></svg>