<svg xmlns="http://www.w3.org/2000/svg" width="640" height="360" viewBox="0 0 640 360" role="img">
  <title>Painel estilizado da instância Open WebUI</title>
  <defs>
    <linearGradient id="webuiGradient" x1="0%" y1="0%" x2="100%" y2="100%">
      <stop offset="0%" stop-color="#7C3AED" />
      <stop offset="100%" stop-color="#0EA5E9" />
    </linearGradient>
  </defs>
  <rect width="640" height="360" rx="32" fill="#020617" />
  <rect x="56" y="56" width="528" height="248" rx="24" fill="rgba(15,23,42,0.92)" stroke="rgba(124,58,237,0.45)" stroke-width="2" />
  <g transform="translate(120 110)">
    <rect x="0" y="0" width="400" height="180" rx="18" fill="rgba(30,41,59,0.9)" stroke="rgba(14,165,233,0.4)" stroke-width="2" />
    <rect x="24" y="24" width="180" height="48" rx="12" fill="url(#webuiGradient)" opacity="0.8" />
    <rect x="24" y="88" width="160" height="18" rx="9" fill="rgba(148,163,184,0.35)" />
    <rect x="24" y="120" width="120" height="18" rx="9" fill="rgba(148,163,184,0.2)" />
    <g transform="translate(230 32)">
      <circle cx="48" cy="24" r="24" fill="#38bdf8" opacity="0.9" />
      <circle cx="92" cy="24" r="24" fill="#7C3AED" opacity="0.85" />
      <circle cx="136" cy="24" r="24" fill="#EC4899" opacity="0.8" />
    </g>
    <g transform="translate(240 88)" stroke="rgba(56,189,248,0.6)" stroke-width="6" stroke-linecap="round">
      <path d="M0 0 L 60 24 L 120 -12" fill="none" />
      <path d="M0 40 L 60 64 L 120 28" fill="none" opacity="0.6" />
    </g>
  </g>
  <text x="50%" y="86%" text-anchor="middle" fill="#cbd5f5" font-family="'Space Grotesk', 'Inter', sans-serif" font-size="40" font-weight="600">
    Open WebUI
  </text>
</svg>
